<svg version="1" xmlns="http://www.w3.org/2000/svg" width="666.667" height="666.667" viewBox="0 0 500.000000 500.000000"><path d="M0 250v250h500V0H0v250zm218-107.4c77.4.6 80.7.7 84.7 2.6 5 2.3 7.7 5.5 25.5 29.8 7.4 10.2 19.1 26 25.9 35.1 14.3 19.1 27.1 36.4 31.4 42.5 1.7 2.3 6.2 8.4 10.1 13.5 3.9 5.2 10.1 13.8 13.7 19.2 3.7 5.4 14.7 20.5 24.5 33.5 21.5 28.7 27.2 36.7 27.2 38.1 0 .8-13.1 1.1-42.7 1.2-221.6.5-211.5.6-220-3.1-5.7-2.4-3.6.1-34.6-41.5-5.4-7.2-11.7-15.5-14.1-18.5-5.7-7.1-23.2-31.1-28.7-39.2-2.4-3.5-8.6-12.2-13.9-19.3-13.2-17.9-64.1-86.3-69.2-92.9l-2.2-2.9 51 .6c28 .4 87.1 1 131.4 1.3z"/><path d="M184 191.9v7l4.8.6c7.6 1.1 8.1 1.4 9.3 5.8 1.7 6 .5 57.9-1.6 71.6-2.5 16.2-7 25.8-13.2 28.2-2.1.8-2.3 1.5-2.3 7.4v6.5h52.1l-.3-6.7c-.3-6.4-.4-6.7-3.2-7.4-3.7-1-6.4-3.5-8.8-8.2-3.9-7.6-4.9-16.8-5.5-47.7l-.5-29.5 30.6 42c16.8 23.1 34 46.6 38.1 52.2l7.6 10.3H303v-44.3c0-50.9.8-59.8 6.2-70.7 2.7-5.4 4-6.9 7.5-8.5l4.2-2 .1-6.8V185h-52v13.6l3.9 1.8c5 2.2 7.6 6.3 10.1 16.2 2.2 8.3 4.4 37.6 3.8 49.2l-.3 6.4-31.6-43.4-31.6-43.3-19.6-.3-19.7-.2v6.9z"/></svg>