<svg version="1" xmlns="http://www.w3.org/2000/svg" width="666.667" height="666.667" viewBox="0 0 500.000000 500.000000"><path d="M0 250v250h500V0H0v250zm462.1-106.3c-4.6 6-55.5 74.5-69.1 92.8-5.3 7.1-11.5 15.8-13.9 19.3-5.5 8.1-23 32.1-28.7 39.2-2.4 3-8.7 11.3-14.1 18.5-31 41.6-28.9 39.1-34.6 41.5-7.4 3.2-16.7 3.5-103.2 3.3-40.7 0-93.2-.2-116.7-.2-29.7-.1-42.8-.4-42.8-1.2 0-1.4 5.7-9.4 27.2-38.1 9.8-13 20.8-28.1 24.5-33.5 3.6-5.4 9.8-14 13.7-19.2 3.9-5.1 8.5-11.2 10.1-13.5 4.3-6.1 17.1-23.4 31.4-42.5 6.8-9.1 18.5-24.9 25.9-35.1 17.8-24.3 20.5-27.5 25.5-29.8 4.1-2 7.1-2.1 103.2-2.7 54.5-.4 99.1-.9 99.3-1 .2-.2 14.8-.4 32.4-.4l32-.2-2.1 2.8z"/></svg>